<svg xmlns="http://www.w3.org/2000/svg" viewBox="0 0 24 24" fill="none">
  <path
    d="M12 2.5c-5.247 0-9.5 4.253-9.5 9.5 0 4.08 2.572 7.556 6.183 8.889.452.085.617-.196.617-.436 0-.215-.008-.786-.013-1.543-2.515.547-3.046-1.212-3.046-1.212-.411-1.045-1.004-1.323-1.004-1.323-.821-.561.062-.55.062-.55.908.064 1.386.932 1.386.932.807 1.383 2.117.984 2.632.752.082-.584.316-.984.575-1.211-2.008-.229-4.12-1.004-4.12-4.471 0-.987.353-1.794.932-2.427-.094-.228-.404-1.148.089-2.394 0 0 .76-.243 2.49.928A8.67 8.67 0 0 1 12 6.92a8.67 8.67 0 0 1 2.268.305c1.729-1.171 2.488-.928 2.488-.928.494 1.246.184 2.166.09 2.394.58.633.931 1.44.931 2.427 0 3.476-2.115 4.239-4.129 4.464.325.28.614.833.614 1.679 0 1.212-.011 2.19-.011 2.489 0 .242.163.525.622.435C18.93 19.552 21.5 16.078 21.5 12c0-5.247-4.253-9.5-9.5-9.5Z"
    fill="#2f3f52"
  />
</svg>
